<svg xmlns="http://www.w3.org/2000/svg" viewBox="0 0 612 612"><path fill="#555" d="M554 58C516.8 20.6 467 0 414.2 0a196.6 196.6 0 0 0-140 58c-37.3 37.4-58 87-58 140 0 27.1 5.6 53.4 16 77.7l-218.2 218c-4 4-6.4 9.3-6.9 14.8L.1 586a23.8 23.8 0 0 0 26 25.9l77.4-6.9c5.6-.5 10.8-3 14.8-6.9l23.4-23.5-.3-2-3.8-56.1a11.5 11.5 0 0 1 12.3-12.3L206 508c.7 0 1.4.2 2 .3l18.5-18.4-.4-2-3.8-56.2a11.5 11.5 0 0 1 12.3-12.3l56.1 3.9c.7 0 1.4.1 2 .3l43.6-43.6a197.5 197.5 0 0 0 77.8 15.9A198.2 198.2 0 0 0 554.1 58zm-82.3 197.6a81 81 0 0 1-57.6 23.8 81 81 0 0 1-57.6-23.8 81 81 0 0 1-23.9-57.7 81 81 0 0 1 23.9-57.6 81 81 0 0 1 57.6-23.9 81.6 81.6 0 0 1 57.6 139.1z"/></svg>